<svg width="80" height="190" viewBox="0 0 80 190" fill="none" xmlns="http://www.w3.org/2000/svg">
<mask id="path-1-inside-1_3301_164" fill="white">
<path d="M62.4921 23.75C62.4921 36.8668 52.428 47.5 40.0134 47.5C27.5988 47.5 17.5348 36.8668 17.5348 23.75C17.5348 10.6332 27.5988 0 40.0134 0C52.428 0 62.4921 10.6332 62.4921 23.75Z"/>
<path d="M77.8866 90.0123C82.6635 102.798 85.8479 166.026 11.01 190C-24.0206 151.642 34.8946 168.326 44.4484 121.977C-16.0588 91.6104 26.8604 62.8422 44.4484 62.8422C62.0364 62.8422 73.1097 72.4317 77.8866 90.0123Z"/>
</mask>
<path d="M77.8866 90.0123L74.9916 90.7989C75.0158 90.8879 75.0441 90.9758 75.0763 91.0622L77.8866 90.0123ZM11.01 190L8.79474 192.023C9.58554 192.889 10.8084 193.215 11.9252 192.857L11.01 190ZM44.4484 121.977L47.3867 122.583C47.6608 121.253 47.0076 119.905 45.7941 119.296L44.4484 121.977ZM62.4921 23.75H59.4921C59.4921 35.3676 50.6178 44.5 40.0134 44.5V47.5V50.5C54.2383 50.5 65.4921 38.366 65.4921 23.75H62.4921ZM40.0134 47.5V44.5C29.4091 44.5 20.5348 35.3676 20.5348 23.75H17.5348H14.5348C14.5348 38.366 25.7886 50.5 40.0134 50.5V47.5ZM17.5348 23.75H20.5348C20.5348 12.1324 29.4091 3 40.0134 3V0V-3C25.7886 -3 14.5348 9.13403 14.5348 23.75H17.5348ZM40.0134 0V3C50.6178 3 59.4921 12.1324 59.4921 23.75H62.4921H65.4921C65.4921 9.13403 54.2383 -3 40.0134 -3V0ZM77.8866 90.0123L75.0763 91.0622C76.0916 93.7796 77.1708 99.7141 76.9774 107.584C76.7856 115.387 75.3462 124.887 71.5091 134.72C63.8795 154.271 46.6622 175.429 10.0947 187.143L11.01 190L11.9252 192.857C50.1956 180.597 68.8051 158.154 77.0986 136.901C81.223 126.332 82.7692 116.13 82.9756 107.732C83.1803 99.4016 82.0701 92.6379 80.6969 88.9624L77.8866 90.0123ZM11.01 190L13.2252 187.977C8.92715 183.271 6.20934 179.556 4.6576 176.579C3.10997 173.61 2.84141 171.607 3.07321 170.192C3.2994 168.812 4.0816 167.506 5.67818 166.076C7.31589 164.61 9.59278 163.205 12.4677 161.607C23.7535 155.333 42.2878 147.319 47.3867 122.583L44.4484 121.977L41.5102 121.371C37.0553 142.983 21.3551 149.802 9.55245 156.363C6.65526 157.974 3.85668 159.653 1.67534 161.607C-0.547141 163.597 -2.32756 166.048 -2.84779 169.222C-3.36239 172.362 -2.56115 175.71 -0.66296 179.352C1.23111 182.986 4.33513 187.14 8.79474 192.023L11.01 190ZM44.4484 121.977L45.7941 119.296C30.8907 111.816 22.805 104.644 19.0162 98.3746C15.3412 92.2931 15.6161 86.9311 17.8585 82.3384C20.1888 77.5657 24.7724 73.4074 30.0078 70.4166C35.261 67.4155 40.7267 65.8422 44.4484 65.8422V62.8422V59.8422C39.3762 59.8422 32.8815 61.8648 27.0315 65.2068C21.1638 68.5589 15.5015 73.4907 12.4669 79.7058C9.34441 86.101 9.13541 93.6247 13.881 101.478C18.513 109.143 27.7525 116.954 43.1028 124.658L44.4484 121.977ZM44.4484 62.8422V65.8422C52.6727 65.8422 59.1258 68.0716 64.0614 72.1477C69.0236 76.2457 72.7179 82.4311 74.9916 90.7989L77.8866 90.0123L80.7817 89.2257C78.2784 80.0129 74.0477 72.6132 67.882 67.5214C61.6897 62.4075 53.8122 59.8422 44.4484 59.8422V62.8422Z" fill="url(#paint0_linear_3301_164)" mask="url(#path-1-inside-1_3301_164)"/>
<defs>
<linearGradient id="paint0_linear_3301_164" x1="40" y1="62.8422" x2="40" y2="190" gradientUnits="userSpaceOnUse">
<stop stop-color="#2A66A7"/>
<stop stop-color="#2A66A7"/>
<stop offset="0.567708" stop-color="#07048F"/>
<stop offset="0.96875" stop-color="#141414" stop-opacity="0.7"/>
</linearGradient>
</defs>
</svg>
