<svg width="34" height="34" viewBox="0 0 34 34" fill="none" xmlns="http://www.w3.org/2000/svg">
<g clip-path="url(#clip0_3301_179)">
<path d="M33.2695 13.4775L33.2222 13.3513L28.641 0.881005C28.5477 0.636593 28.3827 0.429258 28.1695 0.288747C27.9562 0.150624 27.7074 0.0840995 27.4566 0.0981557C27.2059 0.112212 26.9653 0.206172 26.7674 0.36735C26.5717 0.533155 26.4298 0.757826 26.3608 1.01079L23.2675 10.8818H10.7419L7.64858 1.01079C7.58149 0.756448 7.43921 0.530651 7.24198 0.365521C7.04408 0.204344 6.80352 0.110384 6.5528 0.0963274C6.30207 0.0822712 6.05325 0.148796 5.83992 0.286919C5.6272 0.427997 5.46231 0.635151 5.36847 0.879177L0.778476 13.344L0.732908 13.4701C0.0734181 15.2674 -0.00798522 17.2396 0.500972 19.0893C1.00993 20.939 2.08165 22.566 3.55456 23.725L3.57033 23.7378L3.61239 23.7689L10.5912 29.2198L14.0437 31.9453L16.1468 33.6014C16.3928 33.7962 16.6932 33.9017 17.0021 33.9017C17.311 33.9017 17.6113 33.7962 17.8573 33.6014L19.9604 31.9453L23.413 29.2198L30.4338 23.736L30.4514 23.7213C31.921 22.5621 32.9902 20.9368 33.4984 19.0896C34.0066 17.2424 33.9262 15.273 33.2695 13.4775Z" fill="white"/>
</g>
<defs>
<clipPath id="clip0_3301_179">
<rect width="34" height="34" fill="white"/>
</clipPath>
</defs>
</svg>
