<svg width="103" height="34" viewBox="0 0 103 34" fill="none" xmlns="http://www.w3.org/2000/svg">
<path d="M0 33.6V0H7.776V27.264H24.624V33.6H0Z" fill="#F5F5F5"/>
<path d="M40.5881 33.984C37.8361 33.984 35.3881 33.408 33.2441 32.256C31.1321 31.104 29.4521 29.536 28.2041 27.552C26.9881 25.536 26.3801 23.248 26.3801 20.688C26.3801 18.096 26.9881 15.808 28.2041 13.824C29.4521 11.808 31.1321 10.24 33.2441 9.12C35.3881 7.968 37.8361 7.392 40.5881 7.392C43.3081 7.392 45.7401 7.968 47.8841 9.12C50.0281 10.24 51.7081 11.792 52.9241 13.776C54.1401 15.76 54.7481 18.064 54.7481 20.688C54.7481 23.248 54.1401 25.536 52.9241 27.552C51.7081 29.536 50.0281 31.104 47.8841 32.256C45.7401 33.408 43.3081 33.984 40.5881 33.984ZM40.5881 27.84C41.8361 27.84 42.9561 27.552 43.9481 26.976C44.9401 26.4 45.7241 25.584 46.3001 24.528C46.8761 23.44 47.1641 22.16 47.1641 20.688C47.1641 19.184 46.8761 17.904 46.3001 16.848C45.7241 15.792 44.9401 14.976 43.9481 14.4C42.9561 13.824 41.8361 13.536 40.5881 13.536C39.3401 13.536 38.2201 13.824 37.2281 14.4C36.2361 14.976 35.4361 15.792 34.8281 16.848C34.2521 17.904 33.9641 19.184 33.9641 20.688C33.9641 22.16 34.2521 23.44 34.8281 24.528C35.4361 25.584 36.2361 26.4 37.2281 26.976C38.2201 27.552 39.3401 27.84 40.5881 27.84Z" fill="#F5F5F5"/>
<path d="M59.7533 33.6V7.776H66.9053V15.072L65.8972 12.96C66.6652 11.136 67.8972 9.76 69.5932 8.832C71.2892 7.872 73.3532 7.392 75.7852 7.392V14.304C75.4652 14.272 75.1772 14.256 74.9212 14.256C74.6653 14.224 74.3932 14.208 74.1052 14.208C72.0573 14.208 70.3932 14.8 69.1133 15.984C67.8652 17.136 67.2412 18.944 67.2412 21.408V33.6H59.7533Z" fill="#F5F5F5"/>
<path d="M95.3901 33.6V28.56L94.9101 27.456V18.432C94.9101 16.832 94.4141 15.584 93.4221 14.688C92.4621 13.792 90.9741 13.344 88.9581 13.344C87.5821 13.344 86.2221 13.568 84.8781 14.016C83.5661 14.432 82.4461 15.008 81.5181 15.744L78.8301 10.512C80.2381 9.52 81.9341 8.752 83.9181 8.208C85.9021 7.664 87.9181 7.392 89.9661 7.392C93.9021 7.392 96.9581 8.32 99.1341 10.176C101.31 12.032 102.398 14.928 102.398 18.864V33.6H95.3901ZM87.5181 33.984C85.5021 33.984 83.7741 33.648 82.3341 32.976C80.8941 32.272 79.7901 31.328 79.0221 30.144C78.2541 28.96 77.8701 27.632 77.8701 26.16C77.8701 24.624 78.2381 23.28 78.9741 22.128C79.7421 20.976 80.9421 20.08 82.5741 19.44C84.2061 18.768 86.3341 18.432 88.9581 18.432H95.8221V22.8H89.7741C88.0141 22.8 86.7981 23.088 86.1261 23.664C85.4861 24.24 85.1661 24.96 85.1661 25.824C85.1661 26.784 85.5341 27.552 86.2701 28.128C87.0381 28.672 88.0781 28.944 89.3901 28.944C90.6381 28.944 91.7581 28.656 92.7501 28.08C93.7421 27.472 94.4621 26.592 94.9101 25.44L96.0621 28.896C95.5181 30.56 94.5261 31.824 93.0861 32.688C91.6461 33.552 89.7901 33.984 87.5181 33.984Z" fill="#F5F5F5"/>
</svg>
